<svg xmlns="http://www.w3.org/2000/svg" version="1.1" xmlns:xlink="http://www.w3.org/1999/xlink" xmlns:svgjs="http://svgjs.dev/svgjs" width="2000" height="1999" viewBox="0 0 2000 1999"><g transform="matrix(1,0,0,1,-0.431486880466764,-0.4312711370263287)"><svg viewBox="0 0 343 343" data-background-color="#50a060" preserveAspectRatio="xMidYMid meet" height="1999" width="2000" xmlns="http://www.w3.org/2000/svg" xmlns:xlink="http://www.w3.org/1999/xlink"><defs></defs><g id="tight-bounds" transform="matrix(1,0,0,1,0.0740000000000407,0.07400000000001228)"><svg viewBox="0 0 342.85155851775386 342.85155851775386" height="342.85155851775386" width="342.85155851775386"><g><svg></svg></g><g><svg viewBox="0 0 342.85155851775386 342.85155851775386" height="342.85155851775386" width="342.85155851775386"><g><path d="M0 171.426c0-94.676 76.75-171.426 171.426-171.426 94.676 0 171.426 76.75 171.426 171.426 0 94.676-76.75 171.426-171.426 171.426-94.676 0-171.426-76.75-171.426-171.426zM171.426 333.732c89.639 0 162.306-72.667 162.306-162.306 0-89.639-72.667-162.306-162.306-162.307-89.639 0-162.306 72.667-162.307 162.307 0 89.639 72.667 162.306 162.307 162.306z" data-fill-palette-color="tertiary" fill="#096a2e" stroke="transparent"></path><ellipse rx="164.56874808852186" ry="164.56874808852186" cx="171.42577925887693" cy="171.42577925887693" fill="#096a2e" stroke="transparent" stroke-width="0" fill-opacity="1" data-fill-palette-color="tertiary"></ellipse></g><g transform="matrix(1,0,0,1,64.84655864529837,83.43351180786104)"><svg viewBox="0 0 213.1584412271571 175.98453490203178" height="175.98453490203178" width="213.1584412271571"><g><svg viewBox="0 0 213.1584412271571 175.98453490203178" height="175.98453490203178" width="213.1584412271571"><g><svg viewBox="0 0 213.1584412271571 175.98453490203178" height="175.98453490203178" width="213.1584412271571"><g><svg viewBox="0 0 213.1584412271571 175.98453490203178" height="175.98453490203178" width="213.1584412271571"><g><svg viewBox="0 0 213.1584412271571 175.98453490203178" height="175.98453490203178" width="213.1584412271571"><g><svg viewBox="0 0 213.1584412271571 101.12361151452883" height="101.12361151452883" width="213.1584412271571"><g transform="matrix(1,0,0,1,0,0)"><svg width="213.1584412271571" viewBox="2 -25.35 54.7 25.950000000000003" height="101.12361151452883" data-palette-color="#fbfbfb"><path d="M14.75-25.35L14.75-25.35Q19.4-25.35 22.2-24.08 25-22.8 26.23-19.95 27.45-17.1 27.45-12.3L27.45-12.3Q27.45-7.6 26.23-4.75 25-1.9 22.2-0.65 19.4 0.6 14.75 0.6L14.75 0.6Q10.15 0.6 7.33-0.65 4.5-1.9 3.25-4.75 2-7.6 2-12.3L2-12.3Q2-17.1 3.25-19.95 4.5-22.8 7.33-24.08 10.15-25.35 14.75-25.35ZM14.75-19.95L14.75-19.95Q12.85-19.95 11.75-19.3 10.65-18.65 10.2-17 9.75-15.35 9.75-12.3L9.75-12.3Q9.75-9.3 10.2-7.65 10.65-6 11.75-5.38 12.85-4.75 14.75-4.75L14.75-4.75Q16.65-4.75 17.75-5.38 18.85-6 19.3-7.65 19.75-9.3 19.75-12.3L19.75-12.3Q19.75-15.35 19.3-17 18.85-18.65 17.75-19.3 16.65-19.95 14.75-19.95ZM49.7-25.35L49.7-25.35Q56.7-25.35 56.7-18.5L56.7-18.5 56.7 0 49.3 0 49.3-16.2Q49.3-17.85 48.7-18.48 48.1-19.1 46.65-19.1L46.65-19.1Q45.05-19.1 43.35-18.48 41.65-17.85 39.15-16.55L39.15-16.55 38.8-20.7Q41.45-22.95 44.22-24.15 47-25.35 49.7-25.35ZM32.5-24.7L38.45-24.7 39.3-19.8 39.9-19.15 39.9 0 32.5 0 32.5-24.7Z" opacity="1" transform="matrix(1,0,0,1,0,0)" fill="#fbfbfb" class="undefined-text-0" data-fill-palette-color="quaternary" id="text-0"></path></svg></g></svg></g><g transform="matrix(1,0,0,1,0,124.99646922643274)"><svg viewBox="0 0 213.1584412271571 50.988065675599046" height="50.988065675599046" width="213.1584412271571"><g transform="matrix(1,0,0,1,0,0)"><svg width="213.1584412271571" viewBox="2.5 -32.4 135.44 32.4" height="50.988065675599046" data-palette-color="#fbfbfb"><path d="M19.15 0L9.1 0Q6.6 0 5.25-0.65 3.9-1.3 3.33-2.3 2.75-3.3 2.63-4.4 2.5-5.5 2.5-6.4L2.5-6.4 2.5-16Q2.5-16.75 2.63-17.82 2.75-18.9 3.33-19.95 3.9-21 5.28-21.7 6.65-22.4 9.1-22.4L9.1-22.4 16.05-22.4Q22.3-22.4 24.93-22.08 27.55-21.75 27.55-21.4L27.55-21.4 26.55-17.6Q25.15-17.7 23-17.82 20.85-17.95 18.38-18.03 15.9-18.1 13.55-18.1L13.55-18.1 11-18.1Q8.6-18.1 8.6-16.1L8.6-16.1 8.6-6.3Q8.55-4.3 11-4.3L11-4.3 13.55-4.3Q16.25-4.3 18.82-4.38 21.4-4.45 23.55-4.58 25.7-4.7 27-4.8L27-4.8 29-1.55Q29 0 19.15 0L19.15 0ZM38.6 0L32.5 0 32.5-32.4 38.6-32.4 38.6-21.4Q40.7-21.8 43.65-22.1 46.6-22.4 50.4-22.4L50.4-22.4 52.9-22.4Q55.4-22.4 56.75-21.7 58.1-21 58.67-19.95 59.25-18.9 59.37-17.82 59.5-16.75 59.5-16L59.5-16 59.5 0 53.4 0 53.4-16.1Q53.4-18.1 51-18.1L51-18.1 40.1-18.1Q39.15-18.1 38.87-17.93 38.6-17.75 38.6-17L38.6-17 38.6 0ZM74.2 0L71.7 0Q67.9 0 66.2-1.78 64.5-3.55 64.5-6.65L64.5-6.65Q64.5-9.9 66.27-11.65 68.05-13.4 71.7-13.4L71.7-13.4 74.25-13.4Q78-13.4 81-13.2 84-13 85.95-12.8L85.95-12.8 85.95-16.1Q85.95-16.55 85.84-17.03 85.75-17.5 85.25-17.8 84.75-18.1 83.55-18.1L83.55-18.1 81.05-18.1Q75.59-18.1 71.95-17.93 68.3-17.75 67-17.6L67-17.6 66.45-21.4Q66.45-22.1 70.25-22.25 74.05-22.4 82.95-22.4L82.95-22.4 85.45-22.4Q87.95-22.4 89.3-21.7 90.65-21 91.22-19.95 91.8-18.9 91.92-17.82 92.05-16.75 92.05-16L92.05-16 92.05 0 87.95 0 86-1Q83.9-0.65 80.95-0.33 78 0 74.2 0L74.2 0ZM73-4.3L73-4.3 84.45-4.3Q85.55-4.3 85.75-4.5 85.95-4.7 85.95-5.75L85.95-5.75 85.95-9.6 73-9.6Q71.65-9.6 71.12-8.95 70.59-8.3 70.59-6.9L70.59-6.9Q70.59-5.5 71.2-4.9 71.8-4.3 73-4.3ZM101.34-25.55L101.34-25.55Q99.49-25.55 98.64-26.3 97.79-27.05 97.79-28.8L97.79-28.8Q97.79-30.6 98.62-31.33 99.44-32.05 101.34-32.05L101.34-32.05Q103.24-32.05 104.09-31.33 104.94-30.6 104.94-28.8L104.94-28.8Q104.94-27.1 104.09-26.33 103.24-25.55 101.34-25.55ZM104.39 0L98.29 0 98.29-22.4 104.39-22.4 104.39 0ZM117.04 0L110.94 0 110.94-22.4 115.04-22.4 117.04-21.4Q119.14-21.8 122.09-22.1 125.04-22.4 128.84-22.4L128.84-22.4 131.34-22.4Q133.84-22.4 135.19-21.7 136.54-21 137.12-19.95 137.69-18.9 137.82-17.82 137.94-16.75 137.94-16L137.94-16 137.94 0 131.84 0 131.84-16.1Q131.84-18.1 129.44-18.1L129.44-18.1 118.54-18.1Q117.59-18.1 117.32-17.93 117.04-17.75 117.04-17L117.04-17 117.04 0Z" opacity="1" transform="matrix(1,0,0,1,0,0)" fill="#fbfbfb" class="undefined-text-1" data-fill-palette-color="quaternary" id="text-1"></path></svg></g></svg></g></svg></g></svg></g></svg></g></svg></g></svg></g></svg></g></svg><rect width="342.85155851775386" height="342.85155851775386" fill="none" stroke="none" visibility="hidden"></rect></g></svg></g></svg>